<svg width="38" height="41" viewBox="0 0 38 41" fill="none" xmlns="http://www.w3.org/2000/svg">
<path d="M15.637 41C13.409 41 11.3323 40.6421 9.40693 39.9262C7.50904 39.1828 5.8587 38.1366 4.45591 36.7875C3.05313 35.4383 1.9529 33.8552 1.15524 32.038C0.385079 30.2208 0 28.2247 0 26.0496C0 23.8745 0.385079 21.8784 1.15524 20.0612C1.9529 18.244 3.05313 16.6609 4.45591 15.3118C5.88621 13.9626 7.5503 12.9302 9.44818 12.2143C11.3461 11.4709 13.4227 11.0992 15.6782 11.0992C18.1812 11.0992 20.4367 11.5397 22.4446 12.4208C24.48 13.2743 26.1854 14.5408 27.5606 16.2203L23.2698 20.1851C22.2796 19.0562 21.1793 18.2165 19.9691 17.6658C18.7588 17.0876 17.4386 16.7985 16.0083 16.7985C14.6605 16.7985 13.4227 17.0188 12.295 17.4593C11.1673 17.8999 10.1908 18.5331 9.36567 19.3591C8.5405 20.1851 7.89412 21.1625 7.42652 22.2914C6.98643 23.4202 6.76639 24.673 6.76639 26.0496C6.76639 27.4263 6.98643 28.679 7.42652 29.8079C7.89412 30.9367 8.5405 31.9141 9.36567 32.7401C10.1908 33.5661 11.1673 34.1994 12.295 34.6399C13.4227 35.0804 14.6605 35.3007 16.0083 35.3007C17.4386 35.3007 18.7588 35.0253 19.9691 34.4747C21.1793 33.8965 22.2796 33.0292 23.2698 31.8728L27.5606 35.8376C26.1854 37.5171 24.48 38.7974 22.4446 39.6784C20.4367 40.5595 18.1675 41 15.637 41Z" fill="#E87722"/>
<path d="M22.3631 0C24.591 1.94968e-07 26.6677 0.357929 28.5931 1.07379C30.491 1.81718 32.1413 2.86343 33.5441 4.21254C34.9469 5.56166 36.0471 7.1448 36.8448 8.96198C37.6149 10.7792 38 12.7753 38 14.9504C38 17.1255 37.6149 19.1216 36.8448 20.9388C36.0471 22.756 34.9469 24.3391 33.5441 25.6882C32.1138 27.0374 30.4497 28.0698 28.5518 28.7857C26.6539 29.5291 24.5772 29.9008 22.3218 29.9008C19.8188 29.9008 17.5633 29.4603 15.5554 28.5792C13.52 27.7257 11.8146 26.4592 10.4394 24.7796L14.7302 20.8149C15.7204 21.9438 16.8207 22.7835 18.0309 23.3342C19.2412 23.9124 20.5614 24.2015 21.9917 24.2015C23.3395 24.2015 24.5772 23.9812 25.705 23.5407C26.8327 23.1001 27.8092 22.4669 28.6343 21.6409C29.4595 20.8149 30.1059 19.8375 30.5735 18.7086C31.0136 17.5798 31.2336 16.327 31.2336 14.9504C31.2336 13.5737 31.0136 12.321 30.5735 11.1921C30.1059 10.0633 29.4595 9.08587 28.6343 8.25988C27.8092 7.4339 26.8327 6.80064 25.705 6.36011C24.5773 5.91958 23.3395 5.69932 21.9917 5.69932C20.5614 5.69932 19.2412 5.97465 18.0309 6.52531C16.8207 7.1035 15.7204 7.97079 14.7302 9.12717L10.4394 5.16243C11.8146 3.48292 13.52 2.20264 15.5554 1.32158C17.5633 0.440527 19.8325 -2.21444e-07 22.3631 0Z" fill="#E87722"/>
</svg>
