<svg width="64" height="94" viewBox="0 0 64 94" fill="none" xmlns="http://www.w3.org/2000/svg">
<path d="M26.7833 78.768C23.3273 78.768 20.1059 78.2133 17.1193 77.104C14.1753 75.952 11.6153 74.3307 9.43925 72.24C7.26325 70.1493 5.55658 67.696 4.31925 64.88C3.12458 62.064 2.52725 58.9707 2.52725 55.6C2.52725 52.2293 3.12458 49.136 4.31925 46.32C5.55658 43.504 7.26325 41.0507 9.43925 38.96C11.6579 36.8693 14.2393 35.2693 17.1833 34.16C20.1273 33.008 23.3486 32.432 26.8473 32.432C30.7299 32.432 34.2286 33.1147 37.3433 34.48C40.5006 35.8027 43.1459 37.7653 45.2793 40.368L38.6233 46.512C37.0873 44.7627 35.3806 43.4613 33.5033 42.608C31.6259 41.712 29.5779 41.264 27.3593 41.264C25.2686 41.264 23.3486 41.6053 21.5993 42.288C19.8499 42.9707 18.3353 43.952 17.0553 45.232C15.7753 46.512 14.7726 48.0267 14.0473 49.776C13.3646 51.5253 13.0233 53.4667 13.0233 55.6C13.0233 57.7333 13.3646 59.6747 14.0473 61.424C14.7726 63.1733 15.7753 64.688 17.0553 65.968C18.3353 67.248 19.8499 68.2293 21.5993 68.912C23.3486 69.5947 25.2686 69.936 27.3593 69.936C29.5779 69.936 31.6259 69.5093 33.5033 68.656C35.3806 67.76 37.0873 66.416 38.6233 64.624L45.2793 70.768C43.1459 73.3707 40.5006 75.3547 37.3433 76.72C34.2286 78.0853 30.7086 78.768 26.7833 78.768Z" fill="white" fill-opacity="0.6"/>
<path d="M37.2168 15.232C40.6728 15.232 43.8941 15.7867 46.8808 16.896C49.8248 18.048 52.3848 19.6693 54.5608 21.76C56.7368 23.8507 58.4434 26.304 59.6808 29.12C60.8754 31.936 61.4728 35.0293 61.4728 38.4C61.4728 41.7707 60.8754 44.864 59.6808 47.68C58.4434 50.496 56.7368 52.9493 54.5608 55.04C52.3421 57.1307 49.7608 58.7307 46.8168 59.84C43.8728 60.992 40.6514 61.568 37.1527 61.568C33.2701 61.568 29.7714 60.8853 26.6568 59.52C23.4994 58.1973 20.8541 56.2347 18.7208 53.632L25.3767 47.488C26.9128 49.2373 28.6194 50.5387 30.4968 51.392C32.3741 52.288 34.4221 52.736 36.6408 52.736C38.7314 52.736 40.6514 52.3947 42.4008 51.712C44.1501 51.0293 45.6648 50.048 46.9448 48.768C48.2248 47.488 49.2274 45.9733 49.9528 44.224C50.6354 42.4747 50.9768 40.5333 50.9768 38.4C50.9768 36.2667 50.6354 34.3253 49.9528 32.576C49.2274 30.8267 48.2248 29.312 46.9448 28.032C45.6648 26.752 44.1501 25.7707 42.4008 25.088C40.6514 24.4053 38.7314 24.064 36.6408 24.064C34.4221 24.064 32.3741 24.4907 30.4968 25.344C28.6194 26.24 26.9128 27.584 25.3768 29.376L18.7208 23.232C20.8541 20.6293 23.4994 18.6453 26.6568 17.28C29.7714 15.9147 33.2914 15.232 37.2168 15.232Z" fill="white" fill-opacity="0.6"/>
</svg>
