<svg width="20" height="19" viewBox="0 0 20 19" fill="none" xmlns="http://www.w3.org/2000/svg">
<path d="M11.4286 1.64293C11.4286 0.852748 10.7902 0.214355 10.0001 0.214355C9.20989 0.214355 8.5715 0.852748 8.5715 1.64293V8.0715H2.14293C1.35275 8.0715 0.714355 8.70989 0.714355 9.50007C0.714355 10.2902 1.35275 10.9286 2.14293 10.9286H8.5715V17.3572C8.5715 18.1474 9.20989 18.7858 10.0001 18.7858C10.7902 18.7858 11.4286 18.1474 11.4286 17.3572V10.9286H17.8572C18.6474 10.9286 19.2858 10.2902 19.2858 9.50007C19.2858 8.70989 18.6474 8.0715 17.8572 8.0715H11.4286V1.64293Z" fill="white"/>
</svg>
